<svg xmlns="http://www.w3.org/2000/svg" viewBox="0 0 378.78 326.48"><defs><style>.cls-1{fill:#ebc919;}.cls-2{fill:none;stroke:#231f20;stroke-miterlimit:10;stroke-width:10px;}.cls-3{fill:#231f20;}.cls-4{fill:#fff;}</style></defs><title>Asset 1</title><g id="Layer_2" data-name="Layer 2"><g id="Layer_1-2" data-name="Layer 1"><rect class="cls-1" x="25.5" y="86.71" width="67.52" height="37.98" transform="translate(179.96 95.08) rotate(114.24)"/><rect class="cls-1" x="270.27" y="86.71" width="67.52" height="37.98" transform="translate(275.56 -214.91) rotate(65.76)"/><rect class="cls-1" x="52.81" y="237.08" width="67.52" height="37.98" transform="translate(-57.23 484.95) rotate(-129.18)"/><rect class="cls-1" x="247.27" y="237.08" width="67.52" height="37.98" transform="translate(-97.33 293.41) rotate(-47.98)"/><rect class="cls-1" x="151.95" y="5" width="67.52" height="37.98"/><circle class="cls-2" cx="183.19" cy="163.24" r="158.24"/><path class="cls-3" d="M48.5,233.53a134.85,134.85,0,0,1-15.76-.78c-4.28-.51-9.52-1.37-15.56-2.55l-1.45-.28,4.13-23.48,1.28,0c6.58.08,15.66.12,27,.12,3.34,0,3.34-1.33,3.34-2,0-1-.24-1.28-.27-1.3a4.87,4.87,0,0,0-2-.91l-8.44-1.88c-6.07-1.41-10.57-3.9-13.41-7.42S23,184.37,23,177.75c0-8.54,2.72-15.74,8.09-21.39s14.84-8.55,28.1-8.55c5.21,0,10,.2,14.3.6a120.08,120.08,0,0,1,13.75,2.15l1.42.3-4.26,23.92H83.17c-6.27-.08-14.08-.12-23.23-.12a5.59,5.59,0,0,0-3,.55c-.25.18-.54.49-.54,1.37s.19,1,.21,1a4.91,4.91,0,0,0,1.92.87l8,2.23c6.49,1.81,11.21,4.45,14,7.86s4.3,8.44,4.3,14.83c0,8.7-2.78,16-8.27,21.63S61.6,233.53,48.5,233.53Z"/><path class="cls-4" d="M59.23,149.31q7.8,0,14.16.59A117.21,117.21,0,0,1,87,152l-3.78,21.24q-9.33-.12-23.25-.12a7,7,0,0,0-3.89.82,3,3,0,0,0-1.18,2.6,2.83,2.83,0,0,0,.65,2.07,6.52,6.52,0,0,0,2.53,1.23l8,2.25q9.32,2.59,13.27,7.37t4,13.87q0,12.51-7.85,20.59T48.5,232a133.62,133.62,0,0,1-15.58-.77q-6.37-.76-15.46-2.53L21.12,208q10,.12,27,.12,4.84,0,4.84-3.54a3.26,3.26,0,0,0-.71-2.36,6.45,6.45,0,0,0-2.71-1.3L41.06,199q-8.61-2-12.56-6.9t-4-14.34q0-12.27,7.67-20.36t27-8.08m0-3c-13.88,0-23.43,2.95-29.19,9s-8.5,13.48-8.5,22.42c0,7,1.56,12.43,4.62,16.22s7.84,6.46,14.22,7.94l8.42,1.87a8.24,8.24,0,0,1,1.17.43c0,.09,0,.19,0,.33a1.21,1.21,0,0,1,0,.25,3.89,3.89,0,0,1-1.82.29c-11.33,0-20.41,0-27-.12l-2.55,0-.44,2.51-3.66,20.77-.51,2.9,2.89.56c6.08,1.18,11.35,2.05,15.67,2.57A138,138,0,0,0,48.5,235c13.52,0,23.32-3,29.11-9s8.7-13.58,8.7-22.68c0-6.75-1.56-12.06-4.64-15.78s-7.9-6.44-14.79-8.35l-8-2.23a8,8,0,0,1-1-.39v0a.87.87,0,0,1,0-.18,6.35,6.35,0,0,1,2.06-.24c9.14,0,17,0,23.21.12l2.55,0,.44-2.51,3.78-21.24.51-2.86-2.84-.6a123.11,123.11,0,0,0-13.92-2.18c-4.33-.4-9.18-.6-14.44-.6Z"/><polygon class="cls-3" points="94.27 232 103.7 178.19 88.73 178.19 93.6 149.46 157.43 149.46 152.42 178.19 137.43 178.19 127.99 232 94.27 232"/><path class="cls-4" d="M155.64,151l-4.48,25.73h-15l-9.44,53.81H96.05l9.44-53.81h-15L94.87,151h60.77m3.57-3H92.34l-.43,2.5-4.36,25.73-.6,3.5h15L93.1,230l-.62,3.52h36.77l.44-2.49,9-51.32h15l.43-2.49,4.49-25.72.61-3.52Z"/><path class="cls-3" d="M183,232l1.07-12.39h-8.53L172.38,232H137.77l26.69-82.54h54.9L217.28,232Zm3-34.51,1.74-19.42h-1.57l-5,19.42Z"/><path class="cls-4" d="M217.83,151l-2,79.54H184.67l1.06-12.39H174.4l-3.18,12.39H139.83L165.55,151h52.28m-28.44,25.61H185L179.24,199h8.14l2-22.42M220.9,148H163.37L162.7,150,137,229.57l-1.26,3.93h37.83l.58-2.26,2.61-10.13h5.73l-.78,9.13-.28,3.26h37.35l.07-2.93,2-79.53.07-3.08Zm-37.79,48,2.34-9.06-.81,9.06Z"/><polygon class="cls-3" points="226.78 232 236.22 178.19 221.24 178.19 226.12 149.46 289.94 149.46 284.93 178.19 269.94 178.19 260.5 232 226.78 232"/><path class="cls-4" d="M288.15,151l-4.48,25.73h-15l-9.44,53.81H228.56L238,176.69H223L227.38,151h60.77m3.57-3H224.85l-.42,2.5-4.37,25.73-.59,3.5h15L225.61,230,225,233.5h36.77l.44-2.49,9-51.32h15l.44-2.49,4.48-25.72.61-3.52Z"/><path class="cls-3" d="M310.46,233.53a134.61,134.61,0,0,1-15.76-.78c-4.29-.51-9.52-1.37-15.57-2.55l-1.44-.28,4.13-23.48,1.28,0c6.58.08,15.66.12,27,.12,3.34,0,3.34-1.33,3.34-2,0-1-.24-1.28-.27-1.3a4.87,4.87,0,0,0-2-.91l-8.44-1.88c-6.07-1.41-10.58-3.9-13.41-7.42S285,184.37,285,177.75c0-8.54,2.72-15.74,8.08-21.39s14.85-8.55,28.11-8.55c5.21,0,10,.2,14.3.6a120.08,120.08,0,0,1,13.75,2.15l1.41.3-4.25,23.92h-1.27c-6.27-.08-14.09-.12-23.23-.12a5.56,5.56,0,0,0-3,.55c-.25.18-.54.49-.54,1.37s.18,1,.2,1a5,5,0,0,0,1.93.87l8,2.23c6.48,1.81,11.2,4.45,14,7.86s4.3,8.44,4.3,14.83c0,8.7-2.79,16-8.28,21.63S323.56,233.53,310.46,233.53Z"/><path class="cls-4" d="M321.19,149.31q7.79,0,14.16.59A117.06,117.06,0,0,1,348.92,152l-3.77,21.24q-9.33-.12-23.25-.12A7,7,0,0,0,318,174a3,3,0,0,0-1.18,2.6,2.83,2.83,0,0,0,.65,2.07,6.44,6.44,0,0,0,2.53,1.23l8,2.25q9.31,2.59,13.27,7.37t3.95,13.87q0,12.51-7.84,20.59t-27,8.08a133.62,133.62,0,0,1-15.58-.77q-6.37-.76-15.46-2.53L283.08,208q10,.12,27,.12,4.84,0,4.84-3.54a3.26,3.26,0,0,0-.71-2.36,6.51,6.51,0,0,0-2.71-1.3L303,199q-8.61-2-12.57-6.9t-3.95-14.34q0-12.27,7.67-20.36t27-8.08m0-3c-13.89,0-23.44,2.95-29.2,9s-8.49,13.48-8.49,22.42c0,7,1.55,12.43,4.62,16.22s7.84,6.46,14.22,7.94l8.42,1.87a8.24,8.24,0,0,1,1.17.43c0,.09,0,.19,0,.33a1.21,1.21,0,0,1,0,.25,3.89,3.89,0,0,1-1.82.29c-11.33,0-20.41,0-27-.12l-2.54,0-.45,2.51-3.65,20.77-.51,2.9,2.89.56c6.08,1.18,11.35,2.05,15.67,2.57a137.7,137.7,0,0,0,15.94.79c13.52,0,23.32-3,29.11-9s8.69-13.58,8.69-22.68c0-6.75-1.56-12.06-4.64-15.78s-7.9-6.44-14.78-8.35l-8-2.23a7.47,7.47,0,0,1-1-.39v0a.87.87,0,0,1,0-.18,6.3,6.3,0,0,1,2.06-.24c9.14,0,17,0,23.21.12l2.54,0,.45-2.51,3.78-21.24.5-2.86-2.83-.6a123.11,123.11,0,0,0-13.92-2.18c-4.33-.4-9.18-.6-14.44-.6Z"/><path class="cls-3" d="M26,146.66l1.92-10.81a1.84,1.84,0,0,0,.05-.47,1.35,1.35,0,0,0,0-.3H24.46l-2,11.59H1.78L10.14,98.5h27.8c4.82,0,8.38.86,10.88,2.62s4,4.68,4,8.39a17.88,17.88,0,0,1-.29,3.23l-.34,1.8A12.75,12.75,0,0,1,43.7,125a8.54,8.54,0,0,1,5.45,8.47,14.84,14.84,0,0,1-.22,2.46l-1.74,10.7Zm3.6-26.79a1.46,1.46,0,0,0,.85-.16,2.75,2.75,0,0,0,.42-1.28l.68-3.93v0a1.1,1.1,0,0,0,0-.26c-.13,0-.32,0-.57,0H28.08l-1,5.71Z"/><path class="cls-4" d="M37.94,100q6.69,0,10,2.34t3.32,7.17a15.63,15.63,0,0,1-.27,2.95l-.33,1.81a11.74,11.74,0,0,1-4,7.4c-2.15,1.77-5.07,2.76-8.78,3l-.07.67q9.86.53,9.85,8.17a13.93,13.93,0,0,1-.2,2.21l-1.54,9.45H27.75l1.61-9a3.39,3.39,0,0,0,.07-.73,1.6,1.6,0,0,0-1.81-1.81H23.2l-2,11.59H3.57L11.4,100H37.94m-12.6,21.37h4.22a2.66,2.66,0,0,0,1.88-.57,3.83,3.83,0,0,0,.87-2.11l.67-3.88a3.89,3.89,0,0,0,.07-.81,1.1,1.1,0,0,0-.51-1.07,3.45,3.45,0,0,0-1.57-.27H26.81l-1.47,8.71M37.94,97H8.88l-.43,2.49L.61,144.64,0,148.16H23.71l.43-2.49,1.58-9.1h.51l-1.43,8.06-.63,3.53H48.46l.41-2.52,1.54-9.45a16.35,16.35,0,0,0,.24-2.69,10.25,10.25,0,0,0-3.74-8.34A15.13,15.13,0,0,0,48.55,124a14.64,14.64,0,0,0,5.07-9.22L54,113a18.9,18.9,0,0,0,.32-3.5c0-5.27-2.49-8.14-4.58-9.61C46.93,98,43.08,97,37.94,97Zm-8.59,18.66h.44l-.44,2.52c0,.07,0,.14,0,.19h-.43l.46-2.71Z"/><path class="cls-3" d="M70.57,147.6a51.34,51.34,0,0,1-11.66-1,11.35,11.35,0,0,1-6.71-4.06,13.13,13.13,0,0,1-2.1-7.85,50.4,50.4,0,0,1,.9-8.23l1.4-8.11c1-5.68,2.31-9.82,3.93-12.67a13.83,13.83,0,0,1,7.81-6.34c3.34-1.16,8-1.73,14.4-1.73a48.64,48.64,0,0,1,11.7,1.12A11.48,11.48,0,0,1,97,102.85a13.5,13.5,0,0,1,2,7.87,47.65,47.65,0,0,1-.83,8.1l-1.4,8.1c-1,5.73-2.35,9.91-4,12.77a14,14,0,0,1-7.89,6.25C81.53,147.06,76.86,147.6,70.57,147.6Zm.69-17.69a6.54,6.54,0,0,0,1.72.15,6.39,6.39,0,0,0,2-.21c.25-.09.3-.19.32-.24a7.16,7.16,0,0,0,.47-1.8l1.94-11a7.27,7.27,0,0,0,.18-1.35c0-.07,0-.12,0-.16a7,7,0,0,0-1.77-.15,6.42,6.42,0,0,0-2,.21c-.27.1-.32.2-.34.23a7,7,0,0,0-.47,1.75l-1.87,11a8.43,8.43,0,0,0-.18,1.5Z"/><path class="cls-4" d="M78.54,99.06a47,47,0,0,1,11.32,1.07,9.93,9.93,0,0,1,5.86,3.59,11.92,11.92,0,0,1,1.78,7,45.79,45.79,0,0,1-.81,7.84l-1.4,8.11q-1.49,8.24-3.86,12.26a12.52,12.52,0,0,1-7.06,5.59q-4.7,1.57-13.81,1.58a49.32,49.32,0,0,1-11.29-1,9.89,9.89,0,0,1-5.86-3.48,11.72,11.72,0,0,1-1.81-7,49.38,49.38,0,0,1,.87-8l1.41-8.11q1.47-8.18,3.75-12.2a12.44,12.44,0,0,1,7-5.66q4.73-1.64,13.91-1.64M73,131.56a7.81,7.81,0,0,0,2.54-.3,2,2,0,0,0,1.14-1,8.37,8.37,0,0,0,.6-2.21l1.95-11a9,9,0,0,0,.2-1.61,1.51,1.51,0,0,0-.67-1.44,6.09,6.09,0,0,0-2.61-.37,8,8,0,0,0-2.52.3,2,2,0,0,0-1.17,1,9,9,0,0,0-.6,2.15l-1.88,11a10.37,10.37,0,0,0-.2,1.75,1.43,1.43,0,0,0,.67,1.37,6,6,0,0,0,2.55.37m5.56-35.5c-6.52,0-11.39.59-14.89,1.81a15.39,15.39,0,0,0-8.63,7c-1.7,3-3,7.3-4.09,13.14l-1.41,8.12a51.34,51.34,0,0,0-.92,8.49A14.6,14.6,0,0,0,51,143.38,12.78,12.78,0,0,0,58.55,148a51.34,51.34,0,0,0,12,1.1c6.46,0,11.29-.57,14.76-1.73a15.54,15.54,0,0,0,8.7-6.92c1.78-3,3.17-7.35,4.22-13.26l1.41-8.12a49.32,49.32,0,0,0,.85-8.35A14.84,14.84,0,0,0,98.17,102a12.83,12.83,0,0,0-7.55-4.76,49,49,0,0,0-12.08-1.17ZM75,116.66a9.21,9.21,0,0,1,1.15-.06h.1l-1.92,11a9.46,9.46,0,0,1-.2,1c-.23,0-.6.05-1.13.05h-.06l1.87-11c.07-.38.14-.66.19-.86Z"/><path class="cls-3" d="M116.86,147.6a52.48,52.48,0,0,1-11.47-1,11,11,0,0,1-6.51-3.78,12.07,12.07,0,0,1-2-7.4,52.26,52.26,0,0,1,.89-8.22l5-28.72H123.2L118,128.61l-.12,1.26v.06a6.1,6.1,0,0,0,1.51.13,3.71,3.71,0,0,0,1.8-.25,4,4,0,0,0,.54-1.73l5.1-29.58h20.6l-5.06,29.23c-1,5.45-2.2,9.43-3.75,12.17A13.29,13.29,0,0,1,131,146C127.73,147.07,123.11,147.6,116.86,147.6Z"/><path class="cls-4" d="M145.67,100l-4.76,27.47q-1.4,7.84-3.58,11.69a11.68,11.68,0,0,1-6.8,5.39q-4.62,1.55-13.67,1.55a51.09,51.09,0,0,1-11.12-.94,9.53,9.53,0,0,1-5.66-3.22,10.66,10.66,0,0,1-1.71-6.5,50.41,50.41,0,0,1,.87-8L104,100h17.42l-4.89,28.41-.14,1.41a1.45,1.45,0,0,0,.64,1.37,5.3,5.3,0,0,0,2.38.37,4.26,4.26,0,0,0,2.81-.64,4.78,4.78,0,0,0,1-2.58L128.12,100h17.55m3.56-3H125.59l-.43,2.49-4.89,28.34a6.17,6.17,0,0,1-.15.7l-.58,0,4.83-28L125,97H101.47L101,99.49,96.28,127a53.26,53.26,0,0,0-.91,8.48,13.58,13.58,0,0,0,2.31,8.3,12.39,12.39,0,0,0,7.37,4.34,53.41,53.41,0,0,0,11.81,1c6.41,0,11.19-.56,14.62-1.7a14.67,14.67,0,0,0,8.46-6.76c1.64-2.9,2.92-7,3.93-12.64l4.76-27.49.6-3.51Z"/><polygon class="cls-3" points="161.74 146.66 163.2 127.06 159.8 146.66 141.01 146.66 149.37 98.43 179.85 98.43 178.45 116.99 181.66 98.43 200.38 98.43 191.96 146.66 161.74 146.66"/><path class="cls-4" d="M198.6,99.93l-7.91,45.23H163.36l2.21-29.68h-1.88l-5.16,29.68H142.79l7.84-45.23h27.6L176,130.15h1.75l5.22-30.22H198.6m3.57-3H148.1l-.43,2.49-7.84,45.23-.61,3.51h54l.44-2.49,7.9-45.22.62-3.52Z"/><path class="cls-3" d="M194.27,146.66l8.36-48.16H223a94.91,94.91,0,0,1,12.92.65c3.12.48,5.47,1.53,7,3.13s2.36,4.15,2.36,7.44a44.49,44.49,0,0,1-.83,7.7l-1.81,10.64c-1,5.66-2.23,9.63-3.83,12.14a12.28,12.28,0,0,1-7.88,5.28c-3.32.79-8.45,1.18-15.69,1.18Zm25-16.74a3.58,3.58,0,0,0,2-.36s.39-.29.62-1.73l1.95-11.07c.1-.72.11-.92.11-1a.89.89,0,0,0-.06-.4h0a4.44,4.44,0,0,0-1.52-.17h-2l-2.56,14.68Z"/><path class="cls-4" d="M223,100a91.12,91.12,0,0,1,12.69.64c2.79.42,4.84,1.31,6.13,2.68s1.95,3.49,1.95,6.39a42.57,42.57,0,0,1-.81,7.44l-1.81,10.65q-1.39,8.12-3.61,11.6a10.83,10.83,0,0,1-7,4.62q-4.76,1.14-15.34,1.14H196.05L203.89,100H223m-7,31.42h3.29a5,5,0,0,0,2.84-.63,4,4,0,0,0,1.24-2.72l2-11c.08-.63.13-1,.13-1.21a1.83,1.83,0,0,0-.67-1.61,4.48,4.48,0,0,0-2.41-.47H219L216,131.42M223,97H201.37l-.43,2.49-7.84,45.15-.61,3.52h22.73c7.36,0,12.61-.4,16-1.22a13.74,13.74,0,0,0,8.8-5.94c1.7-2.68,3-6.83,4-12.68l1.81-10.67a45,45,0,0,0,.85-7.94c0-3.68-.93-6.53-2.77-8.46s-4.4-3-7.85-3.58A94.43,94.43,0,0,0,223,97Zm-1.43,19.73h.71l-1.9,10.82a5.27,5.27,0,0,1-.18.8,4,4,0,0,1-.67.07l2-11.69Z"/><polygon class="cls-3" points="261.57 146.66 263.03 127.06 259.63 146.66 240.84 146.66 249.19 98.43 279.68 98.43 278.28 116.99 281.49 98.43 300.21 98.43 291.78 146.66 261.57 146.66"/><path class="cls-4" d="M298.43,99.93l-7.91,45.23H263.19l2.21-29.68h-1.88l-5.16,29.68H242.62l7.84-45.23h27.6l-2.28,30.22h1.75l5.22-30.22h15.68m3.57-3H247.93l-.43,2.49-7.84,45.23-.61,3.51h54l.44-2.49,7.9-45.22.62-3.52Z"/><polygon class="cls-3" points="294.1 146.66 302.46 98.5 339.73 98.5 337.08 114.23 320.46 114.23 320.17 115.92 336.13 115.92 333.72 129.51 317.79 129.51 317.55 131 334.12 131 331.38 146.66 294.1 146.66"/><path class="cls-4" d="M338,100l-2.15,12.73H319.2l-.81,4.69h15.95L332.47,128h-16l-.74,4.48h16.55l-2.21,12.67H295.88L303.72,100H338m3.55-3H301.2l-.43,2.49-7.84,45.15-.61,3.52h40.32l.43-2.49L335.29,133l.61-3.52h-.65l.17-1,1.87-10.59.4-2.21h.66l.42-2.5,2.15-12.73.59-3.5Z"/><polygon class="cls-3" points="339.59 146.66 344.95 116.11 336.45 116.11 339.44 98.5 377 98.5 373.93 116.11 365.42 116.11 360.06 146.66 339.59 146.66"/><path class="cls-4" d="M375.21,100l-2.55,14.61h-8.5l-5.36,30.55H341.38l5.36-30.55h-8.51L340.71,100h34.5m3.57-3H338.17l-.42,2.5-2.48,14.6-.6,3.51h8.49l-4.74,27-.62,3.52h23.51l.44-2.48,4.92-28.07h8.52l.43-2.49,2.55-14.61.61-3.51Z"/></g></g></svg>